<svg width="375" height="355" viewBox="0 0 375 355" fill="none" xmlns="http://www.w3.org/2000/svg">
<path d="M247.724 188.539C231.638 163.466 204.243 148.495 174.439 148.495C144.636 148.495 117.239 163.466 101.157 188.539L62.3963 248.954C55.966 258.976 52.9987 270.558 53.8135 282.435C54.629 294.316 59.1539 305.379 66.8968 314.438C74.6446 323.488 84.8828 329.673 96.5041 332.327C108.125 334.981 120.038 333.848 130.953 329.054L131.684 328.73C159.147 316.909 190.53 317.018 217.923 329.054C224.989 332.159 232.476 333.728 240.03 333.728C244.138 333.728 248.269 333.262 252.363 332.33C263.984 329.679 274.222 323.493 281.973 314.44C289.719 305.391 294.246 294.325 295.064 282.441C295.882 270.558 292.915 258.979 286.484 248.951L247.724 188.539ZM72.837 188.459C84.3675 184.034 93.1277 174.75 97.5025 162.316C101.667 150.484 101.326 137.126 96.539 124.7C91.7501 112.283 83.0396 102.146 72.0103 96.1533C60.4246 89.861 47.6967 88.8369 36.1843 93.2701C13.0248 102.167 2.39632 130.763 12.4949 157.03C20.5624 177.935 39.3785 191.132 58.4006 191.132C63.3365 191.138 68.231 190.232 72.837 188.459ZM148.044 141.127C176.997 141.127 200.553 114.312 200.553 81.3538C200.553 48.3869 176.997 21.5679 148.044 21.5679C119.094 21.5679 95.5413 48.3869 95.5413 81.3538C95.5413 114.312 119.093 141.127 148.044 141.127ZM238.727 155.812H238.729C243.09 157.26 247.656 157.996 252.251 157.994C273.366 157.994 293.943 142.639 301.795 119.04C306.317 105.456 306.019 91.0929 300.957 78.599C295.662 65.5191 285.846 56.0249 273.317 51.8644C260.784 47.7033 247.233 49.4389 235.154 56.7476C223.615 63.7284 214.773 75.0566 210.257 88.6402C200.724 117.297 213.496 147.429 238.727 155.812ZM349.305 148.836L349.296 148.827C329.33 134.091 299.469 140.478 282.726 163.074C266 185.68 268.615 216.071 288.551 230.819C295.822 236.201 304.414 238.773 313.206 238.773C328.531 238.773 344.475 230.958 355.132 216.587C371.857 193.98 369.244 163.588 349.305 148.835V148.836Z" fill="#E47537"/>
</svg>
